# xmcd CD database file
#
# Track frame offsets:
#	150
#	14873
#	31622
#	51517
#	65257
#	79428
#	99135
#	113732
#	134877
#	147918
#	163346
#	179830
#
# Disc length: 2631 seconds
#
# Revision: 0
# Processed by: cddbd v1.4PL0 Copyright (c) Steve Scherf et al.
# Submitted via: CDex 1.40Release
#
DISCID=b30a450c
DTITLE=Ricky Calmbach - Texas Standard Time
DYEAR=1900
DGENRE=Country
TTITLE0=The Mirror On The Wall
TTITLE1=Drinkin' and Drivin'
TTITLE2=I'll Be Gone
TTITLE3=South of the Border
TTITLE4=Texas Standard Time
TTITLE5=There Were No Angels
TTITLE6=Ode To A Fool's Memory
TTITLE7=I Ain't Turnin' Back
TTITLE8=Never Meant To Be
TTITLE9=I'll Be The Fool
TTITLE10=Three Little Words
TTITLE11=Right There In Your Eyes
EXTD=ID3G: 2
EXTT0=
EXTT1=
EXTT2=
EXTT3=
EXTT4=
EXTT5=
EXTT6=
EXTT7=
EXTT8=
EXTT9=
EXTT10=
EXTT11=
PLAYORDER=
